# xmcd
#
# Track frame offsets:
#	150
#	10095
#	16545
#	35415
#	56055
#	79905
#	97581
#	102722
#	124272
#	143363
#	168168
#	184714
#	206464
#	219214
#	226083
#	249684
#	270109
#	288258
#	300477
#	317642
#
# Disc length: 4631 seconds
#
# Revision: 1
# Processed by: cddbd v1.5.2PL0 Copyright (c) Steve Scherf et al.
# Submitted via: audiograbber 1.83.01
#
DISCID=f3121514
DTITLE=Kerosin and Score - Grenzerfahrung
DYEAR=2006
DGENRE=Hip-Hop
TTITLE0=Kerosin vs. Spontan
TTITLE1=Comeback
TTITLE2=Grenzbereich
TTITLE3=Rap Rubin
TTITLE4=Stift und Papier feat. Sprachtot and Mino
TTITLE5=Snares und Kicks
TTITLE6=Profirapper (Skit)
TTITLE7=Ghettolife feat. Duff
TTITLE8=Drogen feat. TBS-Mob
TTITLE9=Auf Reisen feat. TBS-Mob
TTITLE10=Ein freier Tag
TTITLE11=Schlaraffenland feat. TBS-Mob
TTITLE12=Liebeserklärung
TTITLE13=Opa Müller (Skit)
TTITLE14=Lauf der Dinge
TTITLE15=Gallenkolik
TTITLE16=Arbeitsmoral
TTITLE17=Geliebte Autarkie
TTITLE18=Diese Welt feat. Schusetta
TTITLE19=Industriegebiet feat. TBS-Mob
EXTD=
EXTT0=
EXTT1=
EXTT2=
EXTT3=
EXTT4=
EXTT5=
EXTT6=
EXTT7=
EXTT8=
EXTT9=
EXTT10=
EXTT11=
EXTT12=
EXTT13=
EXTT14=
EXTT15=
EXTT16=
EXTT17=
EXTT18=
EXTT19=
PLAYORDER=
